<svg width="46" height="56" viewBox="0 0 46 56" fill="none" xmlns="http://www.w3.org/2000/svg">
<g clip-path="url(#clip0_445_66)">
<path d="M6.84927 13.7575C10.632 13.7575 13.6985 10.7349 13.6985 7.00646C13.6985 3.27799 10.632 0.255463 6.84927 0.255463C3.06652 0.255463 0 3.27799 0 7.00646C0 10.7349 3.06652 13.7575 6.84927 13.7575Z" fill="#EB6E08"/>
<path d="M10.1641 23.6253L21.2975 37.0932L40.3112 18.072L42.1859 17.9447L46 55.984H34.3639L36.5695 30.3606L21.8156 42.0313L6.9543 29.6048L7.35318 32.9376L10.085 55.9999H0.257652V17.4624H10.7966C25.154 15.5054 17.3643 0.602111 17.3643 0.602111L24.0848 0C32.2626 16.6956 17.5397 22.0367 10.1641 23.6253Z" fill="#C6C7C9"/>
<path fill-rule="evenodd" clip-rule="evenodd" d="M35.5275 0.549704C35.5275 0.549704 43.2112 12.9146 35.2689 21.1941C35.2689 21.1941 31.8559 26.0598 20.4005 25.9093L11.8673 25.6544L22.9862 55.984H41.0223L17.6854 30.1147L25.9176 29.957C25.9176 29.957 49.4908 27.3112 41.1915 3.16139L39.9695 0.301163L35.5275 0.549704Z" fill="#264091"/>
</g>
<defs>
<clipPath id="clip0_445_66">
<rect width="46" height="56" fill="white"/>
</clipPath>
</defs>
</svg>
